<?xml version="1.0" encoding="UTF-8" standalone="no"?>
<!DOCTYPE svg PUBLIC "-//W3C//DTD SVG 1.1//EN"
 "http://www.w3.org/Graphics/SVG/1.1/DTD/svg11.dtd">
<!-- Generated by graphviz version 2.43.0 (0)
 -->
<!-- Title: c17 Pages: 1 -->
<svg width="1513pt" height="232pt"
 viewBox="0.00 0.00 1512.93 232.00" xmlns="http://www.w3.org/2000/svg" xmlns:xlink="http://www.w3.org/1999/xlink">
<g id="graph0" class="graph" transform="scale(1 1) rotate(0) translate(4 228)">
<title>c17</title>
<polygon fill="white" stroke="transparent" points="-4,4 -4,-228 1508.93,-228 1508.93,4 -4,4"/>
<text text-anchor="middle" x="752.46" y="-7.8" font-family="Times,serif" font-size="14.00">c17</text>
<!-- n13 -->
<g id="node1" class="node">
<title>n13</title>
<polygon fill="none" stroke="black" points="54,-198.54 54,-213.46 38.18,-224 15.82,-224 0,-213.46 0,-198.54 15.82,-188 38.18,-188 54,-198.54"/>
<text text-anchor="middle" x="27" y="-202.3" font-family="Times,serif" font-size="14.00">N1</text>
</g>
<!-- c27 -->
<g id="node12" class="node">
<title>c27</title>
<polygon fill="none" stroke="black" points="90,-171 90,-217 195,-217 195,-171 90,-171"/>
<text text-anchor="middle" x="103.5" y="-201.8" font-family="Times,serif" font-size="14.00">A</text>
<polyline fill="none" stroke="black" points="90,-194 117,-194 "/>
<text text-anchor="middle" x="103.5" y="-178.8" font-family="Times,serif" font-size="14.00">B</text>
<polyline fill="none" stroke="black" points="117,-171 117,-217 "/>
<text text-anchor="middle" x="143" y="-197.8" font-family="Times,serif" font-size="14.00">$1</text>
<text text-anchor="middle" x="143" y="-182.8" font-family="Times,serif" font-size="14.00">$and</text>
<polyline fill="none" stroke="black" points="169,-171 169,-217 "/>
<text text-anchor="middle" x="182" y="-190.3" font-family="Times,serif" font-size="14.00">Y</text>
</g>
<!-- n13&#45;&gt;c27 -->
<g id="edge5" class="edge">
<title>n13:e&#45;&gt;c27:w</title>
<path fill="none" stroke="black" d="M54,-206C66,-206 71.25,-206 79.88,-206"/>
<polygon fill="black" stroke="black" points="80,-209.5 90,-206 80,-202.5 80,-209.5"/>
</g>
<!-- n14 -->
<g id="node2" class="node">
<title>n14</title>
<polygon fill="none" stroke="black" points="632.9,-213 589.5,-195 632.9,-177 676.3,-195 632.9,-213"/>
<text text-anchor="middle" x="632.9" y="-191.3" font-family="Times,serif" font-size="14.00">N10</text>
</g>
<!-- c31 -->
<g id="node16" class="node">
<title>c31</title>
<polygon fill="none" stroke="black" points="1070.8,-143 1070.8,-189 1175.8,-189 1175.8,-143 1070.8,-143"/>
<text text-anchor="middle" x="1084.3" y="-173.8" font-family="Times,serif" font-size="14.00">A</text>
<polyline fill="none" stroke="black" points="1070.8,-166 1097.8,-166 "/>
<text text-anchor="middle" x="1084.3" y="-150.8" font-family="Times,serif" font-size="14.00">B</text>
<polyline fill="none" stroke="black" points="1097.8,-143 1097.8,-189 "/>
<text text-anchor="middle" x="1123.8" y="-169.8" font-family="Times,serif" font-size="14.00">$9</text>
<text text-anchor="middle" x="1123.8" y="-154.8" font-family="Times,serif" font-size="14.00">$and</text>
<polyline fill="none" stroke="black" points="1149.8,-143 1149.8,-189 "/>
<text text-anchor="middle" x="1162.8" y="-162.3" font-family="Times,serif" font-size="14.00">Y</text>
</g>
<!-- n14&#45;&gt;c31 -->
<g id="edge7" class="edge">
<title>n14:e&#45;&gt;c31:w</title>
<path fill="none" stroke="black" d="M677.9,-195C849.27,-195 894.27,-178.66 1060.71,-178.02"/>
<polygon fill="black" stroke="black" points="1060.81,-181.52 1070.8,-178 1060.79,-174.52 1060.81,-181.52"/>
</g>
<!-- n15 -->
<g id="node3" class="node">
<title>n15</title>
<polygon fill="none" stroke="black" points="501.2,-113 457.8,-95 501.2,-77 544.6,-95 501.2,-113"/>
<text text-anchor="middle" x="501.2" y="-91.3" font-family="Times,serif" font-size="14.00">N11</text>
</g>
<!-- c29 -->
<g id="node14" class="node">
<title>c29</title>
<polygon fill="none" stroke="black" points="580.4,-112 580.4,-158 685.4,-158 685.4,-112 580.4,-112"/>
<text text-anchor="middle" x="593.9" y="-142.8" font-family="Times,serif" font-size="14.00">A</text>
<polyline fill="none" stroke="black" points="580.4,-135 607.4,-135 "/>
<text text-anchor="middle" x="593.9" y="-119.8" font-family="Times,serif" font-size="14.00">B</text>
<polyline fill="none" stroke="black" points="607.4,-112 607.4,-158 "/>
<text text-anchor="middle" x="633.4" y="-138.8" font-family="Times,serif" font-size="14.00">$5</text>
<text text-anchor="middle" x="633.4" y="-123.8" font-family="Times,serif" font-size="14.00">$and</text>
<polyline fill="none" stroke="black" points="659.4,-112 659.4,-158 "/>
<text text-anchor="middle" x="672.4" y="-131.3" font-family="Times,serif" font-size="14.00">Y</text>
</g>
<!-- n15&#45;&gt;c29 -->
<g id="edge9" class="edge">
<title>n15:e&#45;&gt;c29:w</title>
<path fill="none" stroke="black" d="M544.4,-95C560.55,-95 560.95,-112.78 570.7,-120"/>
<polygon fill="black" stroke="black" points="569.81,-123.39 580.4,-123 571.88,-116.7 569.81,-123.39"/>
</g>
<!-- c30 -->
<g id="node15" class="node">
<title>c30</title>
<polygon fill="none" stroke="black" points="580.4,-47 580.4,-93 685.4,-93 685.4,-47 580.4,-47"/>
<text text-anchor="middle" x="593.9" y="-77.8" font-family="Times,serif" font-size="14.00">A</text>
<polyline fill="none" stroke="black" points="580.4,-70 607.4,-70 "/>
<text text-anchor="middle" x="593.9" y="-54.8" font-family="Times,serif" font-size="14.00">B</text>
<polyline fill="none" stroke="black" points="607.4,-47 607.4,-93 "/>
<text text-anchor="middle" x="633.4" y="-73.8" font-family="Times,serif" font-size="14.00">$7</text>
<text text-anchor="middle" x="633.4" y="-58.8" font-family="Times,serif" font-size="14.00">$and</text>
<polyline fill="none" stroke="black" points="659.4,-47 659.4,-93 "/>
<text text-anchor="middle" x="672.4" y="-66.3" font-family="Times,serif" font-size="14.00">Y</text>
</g>
<!-- n15&#45;&gt;c30 -->
<g id="edge10" class="edge">
<title>n15:e&#45;&gt;c30:w</title>
<path fill="none" stroke="black" d="M544.4,-95C557.43,-95 561.64,-87.38 570.53,-83.81"/>
<polygon fill="black" stroke="black" points="571.19,-87.24 580.4,-82 569.93,-80.36 571.19,-87.24"/>
</g>
<!-- n16 -->
<g id="node4" class="node">
<title>n16</title>
<polygon fill="none" stroke="black" points="991.6,-153 948.2,-135 991.6,-117 1035,-135 991.6,-153"/>
<text text-anchor="middle" x="991.6" y="-131.3" font-family="Times,serif" font-size="14.00">N16</text>
</g>
<!-- n16&#45;&gt;c31 -->
<g id="edge12" class="edge">
<title>n16:e&#45;&gt;c31:w</title>
<path fill="none" stroke="black" d="M1034.8,-135C1048.79,-135 1051.85,-146.37 1060.89,-151.52"/>
<polygon fill="black" stroke="black" points="1060.25,-154.96 1070.8,-154 1061.95,-148.17 1060.25,-154.96"/>
</g>
<!-- c32 -->
<g id="node17" class="node">
<title>c32</title>
<polygon fill="none" stroke="black" points="1070.8,-75 1070.8,-121 1175.8,-121 1175.8,-75 1070.8,-75"/>
<text text-anchor="middle" x="1084.3" y="-105.8" font-family="Times,serif" font-size="14.00">A</text>
<polyline fill="none" stroke="black" points="1070.8,-98 1097.8,-98 "/>
<text text-anchor="middle" x="1084.3" y="-82.8" font-family="Times,serif" font-size="14.00">B</text>
<polyline fill="none" stroke="black" points="1097.8,-75 1097.8,-121 "/>
<text text-anchor="middle" x="1123.8" y="-101.8" font-family="Times,serif" font-size="14.00">$11</text>
<text text-anchor="middle" x="1123.8" y="-86.8" font-family="Times,serif" font-size="14.00">$and</text>
<polyline fill="none" stroke="black" points="1149.8,-75 1149.8,-121 "/>
<text text-anchor="middle" x="1162.8" y="-94.3" font-family="Times,serif" font-size="14.00">Y</text>
</g>
<!-- n16&#45;&gt;c32 -->
<g id="edge13" class="edge">
<title>n16:e&#45;&gt;c32:w</title>
<path fill="none" stroke="black" d="M1034.8,-135C1050.17,-135 1051.57,-119.43 1061.05,-112.87"/>
<polygon fill="black" stroke="black" points="1062.2,-116.18 1070.8,-110 1060.22,-109.46 1062.2,-116.18"/>
</g>
<!-- n17 -->
<g id="node5" class="node">
<title>n17</title>
<polygon fill="none" stroke="black" points="991.6,-98 948.2,-80 991.6,-62 1035,-80 991.6,-98"/>
<text text-anchor="middle" x="991.6" y="-76.3" font-family="Times,serif" font-size="14.00">N19</text>
</g>
<!-- n17&#45;&gt;c32 -->
<g id="edge15" class="edge">
<title>n17:e&#45;&gt;c32:w</title>
<path fill="none" stroke="black" d="M1034.8,-80C1046.97,-80 1052.01,-83.38 1060.61,-85.06"/>
<polygon fill="black" stroke="black" points="1060.52,-88.57 1070.8,-86 1061.16,-81.6 1060.52,-88.57"/>
</g>
<!-- n18 -->
<g id="node6" class="node">
<title>n18</title>
<polygon fill="none" stroke="black" points="528.2,-141.54 528.2,-156.46 512.38,-167 490.02,-167 474.2,-156.46 474.2,-141.54 490.02,-131 512.38,-131 528.2,-141.54"/>
<text text-anchor="middle" x="501.2" y="-145.3" font-family="Times,serif" font-size="14.00">N2</text>
</g>
<!-- n18&#45;&gt;c29 -->
<g id="edge16" class="edge">
<title>n18:e&#45;&gt;c29:w</title>
<path fill="none" stroke="black" d="M529.2,-149C548.06,-149 555.18,-147.63 570,-147.16"/>
<polygon fill="black" stroke="black" points="570.45,-150.65 580.4,-147 570.35,-143.65 570.45,-150.65"/>
</g>
<!-- n19 -->
<g id="node7" class="node">
<title>n19</title>
<polygon fill="none" stroke="black" points="1504.99,-158.54 1504.99,-173.46 1485.59,-184 1458.14,-184 1438.74,-173.46 1438.74,-158.54 1458.14,-148 1485.59,-148 1504.99,-158.54"/>
<text text-anchor="middle" x="1471.87" y="-162.3" font-family="Times,serif" font-size="14.00">N22</text>
</g>
<!-- n20 -->
<g id="node8" class="node">
<title>n20</title>
<polygon fill="none" stroke="black" points="1504.99,-90.54 1504.99,-105.46 1485.59,-116 1458.14,-116 1438.74,-105.46 1438.74,-90.54 1458.14,-80 1485.59,-80 1504.99,-90.54"/>
<text text-anchor="middle" x="1471.87" y="-94.3" font-family="Times,serif" font-size="14.00">N23</text>
</g>
<!-- n21 -->
<g id="node9" class="node">
<title>n21</title>
<polygon fill="none" stroke="black" points="54,-140.54 54,-155.46 38.18,-166 15.82,-166 0,-155.46 0,-140.54 15.82,-130 38.18,-130 54,-140.54"/>
<text text-anchor="middle" x="27" y="-144.3" font-family="Times,serif" font-size="14.00">N3</text>
</g>
<!-- n21&#45;&gt;c27 -->
<g id="edge20" class="edge">
<title>n21:e&#45;&gt;c27:w</title>
<path fill="none" stroke="black" d="M54,-148C71.88,-148 69.94,-170.45 80.39,-178.86"/>
<polygon fill="black" stroke="black" points="79.41,-182.22 90,-182 81.58,-175.57 79.41,-182.22"/>
</g>
<!-- c28 -->
<g id="node13" class="node">
<title>c28</title>
<polygon fill="none" stroke="black" points="90,-75 90,-121 195,-121 195,-75 90,-75"/>
<text text-anchor="middle" x="103.5" y="-105.8" font-family="Times,serif" font-size="14.00">A</text>
<polyline fill="none" stroke="black" points="90,-98 117,-98 "/>
<text text-anchor="middle" x="103.5" y="-82.8" font-family="Times,serif" font-size="14.00">B</text>
<polyline fill="none" stroke="black" points="117,-75 117,-121 "/>
<text text-anchor="middle" x="143" y="-101.8" font-family="Times,serif" font-size="14.00">$3</text>
<text text-anchor="middle" x="143" y="-86.8" font-family="Times,serif" font-size="14.00">$and</text>
<polyline fill="none" stroke="black" points="169,-75 169,-121 "/>
<text text-anchor="middle" x="182" y="-94.3" font-family="Times,serif" font-size="14.00">Y</text>
</g>
<!-- n21&#45;&gt;c28 -->
<g id="edge21" class="edge">
<title>n21:e&#45;&gt;c28:w</title>
<path fill="none" stroke="black" d="M54,-148C73.08,-148 69.43,-122.43 80.34,-113.24"/>
<polygon fill="black" stroke="black" points="81.63,-116.5 90,-110 79.41,-109.86 81.63,-116.5"/>
</g>
<!-- n22 -->
<g id="node10" class="node">
<title>n22</title>
<polygon fill="none" stroke="black" points="54,-78.54 54,-93.46 38.18,-104 15.82,-104 0,-93.46 0,-78.54 15.82,-68 38.18,-68 54,-78.54"/>
<text text-anchor="middle" x="27" y="-82.3" font-family="Times,serif" font-size="14.00">N6</text>
</g>
<!-- n22&#45;&gt;c28 -->
<g id="edge22" class="edge">
<title>n22:e&#45;&gt;c28:w</title>
<path fill="none" stroke="black" d="M54,-86C66,-86 71.25,-86 79.88,-86"/>
<polygon fill="black" stroke="black" points="80,-89.5 90,-86 80,-82.5 80,-89.5"/>
</g>
<!-- n23 -->
<g id="node11" class="node">
<title>n23</title>
<polygon fill="none" stroke="black" points="528.2,-33.54 528.2,-48.46 512.38,-59 490.02,-59 474.2,-48.46 474.2,-33.54 490.02,-23 512.38,-23 528.2,-33.54"/>
<text text-anchor="middle" x="501.2" y="-37.3" font-family="Times,serif" font-size="14.00">N7</text>
</g>
<!-- n23&#45;&gt;c30 -->
<g id="edge23" class="edge">
<title>n23:e&#45;&gt;c30:w</title>
<path fill="none" stroke="black" d="M529.2,-41C549.24,-41 554.8,-52.88 570.09,-56.78"/>
<polygon fill="black" stroke="black" points="570.06,-60.3 580.4,-58 570.88,-53.35 570.06,-60.3"/>
</g>
<!-- c33 -->
<g id="node18" class="node">
<title>c33</title>
<polygon fill="none" stroke="black" points="231,-175 231,-213 332,-213 332,-175 231,-175"/>
<text text-anchor="middle" x="244" y="-190.3" font-family="Times,serif" font-size="14.00">A</text>
<polyline fill="none" stroke="black" points="257,-175 257,-213 "/>
<text text-anchor="middle" x="281.5" y="-197.8" font-family="Times,serif" font-size="14.00">$2</text>
<text text-anchor="middle" x="281.5" y="-182.8" font-family="Times,serif" font-size="14.00">$not</text>
<polyline fill="none" stroke="black" points="306,-175 306,-213 "/>
<text text-anchor="middle" x="319" y="-190.3" font-family="Times,serif" font-size="14.00">Y</text>
</g>
<!-- c27&#45;&gt;c33 -->
<g id="edge1" class="edge">
<title>c27:e&#45;&gt;c33:w</title>
<path fill="none" stroke="black" d="M195,-194C207,-194 212.25,-194 220.88,-194"/>
<polygon fill="black" stroke="black" points="221,-197.5 231,-194 221,-190.5 221,-197.5"/>
</g>
<!-- c34 -->
<g id="node19" class="node">
<title>c34</title>
<polygon fill="none" stroke="black" points="231,-79 231,-117 332,-117 332,-79 231,-79"/>
<text text-anchor="middle" x="244" y="-94.3" font-family="Times,serif" font-size="14.00">A</text>
<polyline fill="none" stroke="black" points="257,-79 257,-117 "/>
<text text-anchor="middle" x="281.5" y="-101.8" font-family="Times,serif" font-size="14.00">$4</text>
<text text-anchor="middle" x="281.5" y="-86.8" font-family="Times,serif" font-size="14.00">$not</text>
<polyline fill="none" stroke="black" points="306,-79 306,-117 "/>
<text text-anchor="middle" x="319" y="-94.3" font-family="Times,serif" font-size="14.00">Y</text>
</g>
<!-- c28&#45;&gt;c34 -->
<g id="edge18" class="edge">
<title>c28:e&#45;&gt;c34:w</title>
<path fill="none" stroke="black" d="M195,-98C207,-98 212.25,-98 220.88,-98"/>
<polygon fill="black" stroke="black" points="221,-101.5 231,-98 221,-94.5 221,-101.5"/>
</g>
<!-- c35 -->
<g id="node20" class="node">
<title>c35</title>
<polygon fill="none" stroke="black" points="721.4,-116 721.4,-154 822.4,-154 822.4,-116 721.4,-116"/>
<text text-anchor="middle" x="734.4" y="-131.3" font-family="Times,serif" font-size="14.00">A</text>
<polyline fill="none" stroke="black" points="747.4,-116 747.4,-154 "/>
<text text-anchor="middle" x="771.9" y="-138.8" font-family="Times,serif" font-size="14.00">$6</text>
<text text-anchor="middle" x="771.9" y="-123.8" font-family="Times,serif" font-size="14.00">$not</text>
<polyline fill="none" stroke="black" points="796.4,-116 796.4,-154 "/>
<text text-anchor="middle" x="809.4" y="-131.3" font-family="Times,serif" font-size="14.00">Y</text>
</g>
<!-- c29&#45;&gt;c35 -->
<g id="edge24" class="edge">
<title>c29:e&#45;&gt;c35:w</title>
<path fill="none" stroke="black" d="M685.4,-135C697.4,-135 702.65,-135 711.28,-135"/>
<polygon fill="black" stroke="black" points="711.4,-138.5 721.4,-135 711.4,-131.5 711.4,-138.5"/>
</g>
<!-- c36 -->
<g id="node21" class="node">
<title>c36</title>
<polygon fill="none" stroke="black" points="721.4,-55 721.4,-93 822.4,-93 822.4,-55 721.4,-55"/>
<text text-anchor="middle" x="734.4" y="-70.3" font-family="Times,serif" font-size="14.00">A</text>
<polyline fill="none" stroke="black" points="747.4,-55 747.4,-93 "/>
<text text-anchor="middle" x="771.9" y="-77.8" font-family="Times,serif" font-size="14.00">$8</text>
<text text-anchor="middle" x="771.9" y="-62.8" font-family="Times,serif" font-size="14.00">$not</text>
<polyline fill="none" stroke="black" points="796.4,-55 796.4,-93 "/>
<text text-anchor="middle" x="809.4" y="-70.3" font-family="Times,serif" font-size="14.00">Y</text>
</g>
<!-- c30&#45;&gt;c36 -->
<g id="edge25" class="edge">
<title>c30:e&#45;&gt;c36:w</title>
<path fill="none" stroke="black" d="M685.4,-70C697.47,-70 702.63,-72.25 711.25,-73.38"/>
<polygon fill="black" stroke="black" points="711.2,-76.88 721.4,-74 711.63,-69.89 711.2,-76.88"/>
</g>
<!-- c37 -->
<g id="node22" class="node">
<title>c37</title>
<polygon fill="none" stroke="black" points="1211.8,-147 1211.8,-185 1312.8,-185 1312.8,-147 1211.8,-147"/>
<text text-anchor="middle" x="1224.8" y="-162.3" font-family="Times,serif" font-size="14.00">A</text>
<polyline fill="none" stroke="black" points="1237.8,-147 1237.8,-185 "/>
<text text-anchor="middle" x="1262.3" y="-169.8" font-family="Times,serif" font-size="14.00">$10</text>
<text text-anchor="middle" x="1262.3" y="-154.8" font-family="Times,serif" font-size="14.00">$not</text>
<polyline fill="none" stroke="black" points="1286.8,-147 1286.8,-185 "/>
<text text-anchor="middle" x="1299.8" y="-162.3" font-family="Times,serif" font-size="14.00">Y</text>
</g>
<!-- c31&#45;&gt;c37 -->
<g id="edge26" class="edge">
<title>c31:e&#45;&gt;c37:w</title>
<path fill="none" stroke="black" d="M1175.8,-166C1187.8,-166 1193.05,-166 1201.68,-166"/>
<polygon fill="black" stroke="black" points="1201.8,-169.5 1211.8,-166 1201.8,-162.5 1201.8,-169.5"/>
</g>
<!-- c38 -->
<g id="node23" class="node">
<title>c38</title>
<polygon fill="none" stroke="black" points="1211.8,-79 1211.8,-117 1312.8,-117 1312.8,-79 1211.8,-79"/>
<text text-anchor="middle" x="1224.8" y="-94.3" font-family="Times,serif" font-size="14.00">A</text>
<polyline fill="none" stroke="black" points="1237.8,-79 1237.8,-117 "/>
<text text-anchor="middle" x="1262.3" y="-101.8" font-family="Times,serif" font-size="14.00">$12</text>
<text text-anchor="middle" x="1262.3" y="-86.8" font-family="Times,serif" font-size="14.00">$not</text>
<polyline fill="none" stroke="black" points="1286.8,-79 1286.8,-117 "/>
<text text-anchor="middle" x="1299.8" y="-94.3" font-family="Times,serif" font-size="14.00">Y</text>
</g>
<!-- c32&#45;&gt;c38 -->
<g id="edge27" class="edge">
<title>c32:e&#45;&gt;c38:w</title>
<path fill="none" stroke="black" d="M1175.8,-98C1187.8,-98 1193.05,-98 1201.68,-98"/>
<polygon fill="black" stroke="black" points="1201.8,-101.5 1211.8,-98 1201.8,-94.5 1201.8,-101.5"/>
</g>
<!-- x0 -->
<g id="node24" class="node">
<title>x0</title>
<path fill="none" stroke="black" d="M410,-212C410,-212 380,-212 380,-212 374,-212 368,-206 368,-200 368,-200 368,-188 368,-188 368,-182 374,-176 380,-176 380,-176 410,-176 410,-176 416,-176 422,-182 422,-188 422,-188 422,-200 422,-200 422,-206 416,-212 410,-212"/>
<text text-anchor="middle" x="395" y="-190.3" font-family="Times,serif" font-size="14.00">BUF</text>
</g>
<!-- c33&#45;&gt;x0 -->
<g id="edge28" class="edge">
<title>c33:e&#45;&gt;x0:w</title>
<path fill="none" stroke="black" d="M332,-194C344,-194 349.25,-194 357.88,-194"/>
<polygon fill="black" stroke="black" points="358,-197.5 368,-194 358,-190.5 358,-197.5"/>
</g>
<!-- x1 -->
<g id="node25" class="node">
<title>x1</title>
<path fill="none" stroke="black" d="M410,-114C410,-114 380,-114 380,-114 374,-114 368,-108 368,-102 368,-102 368,-90 368,-90 368,-84 374,-78 380,-78 380,-78 410,-78 410,-78 416,-78 422,-84 422,-90 422,-90 422,-102 422,-102 422,-108 416,-114 410,-114"/>
<text text-anchor="middle" x="395" y="-92.3" font-family="Times,serif" font-size="14.00">BUF</text>
</g>
<!-- c34&#45;&gt;x1 -->
<g id="edge29" class="edge">
<title>c34:e&#45;&gt;x1:w</title>
<path fill="none" stroke="black" d="M332,-98C344.02,-98 349.25,-96.88 357.87,-96.31"/>
<polygon fill="black" stroke="black" points="358.11,-99.81 368,-96 357.9,-92.81 358.11,-99.81"/>
</g>
<!-- x2 -->
<g id="node26" class="node">
<title>x2</title>
<path fill="none" stroke="black" d="M900.4,-153C900.4,-153 870.4,-153 870.4,-153 864.4,-153 858.4,-147 858.4,-141 858.4,-141 858.4,-129 858.4,-129 858.4,-123 864.4,-117 870.4,-117 870.4,-117 900.4,-117 900.4,-117 906.4,-117 912.4,-123 912.4,-129 912.4,-129 912.4,-141 912.4,-141 912.4,-147 906.4,-153 900.4,-153"/>
<text text-anchor="middle" x="885.4" y="-131.3" font-family="Times,serif" font-size="14.00">BUF</text>
</g>
<!-- c35&#45;&gt;x2 -->
<g id="edge30" class="edge">
<title>c35:e&#45;&gt;x2:w</title>
<path fill="none" stroke="black" d="M822.4,-135C834.4,-135 839.65,-135 848.28,-135"/>
<polygon fill="black" stroke="black" points="848.4,-138.5 858.4,-135 848.4,-131.5 848.4,-138.5"/>
</g>
<!-- x3 -->
<g id="node27" class="node">
<title>x3</title>
<path fill="none" stroke="black" d="M900.4,-97C900.4,-97 870.4,-97 870.4,-97 864.4,-97 858.4,-91 858.4,-85 858.4,-85 858.4,-73 858.4,-73 858.4,-67 864.4,-61 870.4,-61 870.4,-61 900.4,-61 900.4,-61 906.4,-61 912.4,-67 912.4,-73 912.4,-73 912.4,-85 912.4,-85 912.4,-91 906.4,-97 900.4,-97"/>
<text text-anchor="middle" x="885.4" y="-75.3" font-family="Times,serif" font-size="14.00">BUF</text>
</g>
<!-- c36&#45;&gt;x3 -->
<g id="edge2" class="edge">
<title>c36:e&#45;&gt;x3:w</title>
<path fill="none" stroke="black" d="M822.4,-74C834.52,-74 839.62,-76.81 848.23,-78.22"/>
<polygon fill="black" stroke="black" points="848.16,-81.72 858.4,-79 848.7,-74.74 848.16,-81.72"/>
</g>
<!-- x4 -->
<g id="node28" class="node">
<title>x4</title>
<path fill="none" stroke="black" d="M1390.8,-184C1390.8,-184 1360.8,-184 1360.8,-184 1354.8,-184 1348.8,-178 1348.8,-172 1348.8,-172 1348.8,-160 1348.8,-160 1348.8,-154 1354.8,-148 1360.8,-148 1360.8,-148 1390.8,-148 1390.8,-148 1396.8,-148 1402.8,-154 1402.8,-160 1402.8,-160 1402.8,-172 1402.8,-172 1402.8,-178 1396.8,-184 1390.8,-184"/>
<text text-anchor="middle" x="1375.8" y="-162.3" font-family="Times,serif" font-size="14.00">BUF</text>
</g>
<!-- c37&#45;&gt;x4 -->
<g id="edge3" class="edge">
<title>c37:e&#45;&gt;x4:w</title>
<path fill="none" stroke="black" d="M1312.8,-166C1324.8,-166 1330.05,-166 1338.68,-166"/>
<polygon fill="black" stroke="black" points="1338.8,-169.5 1348.8,-166 1338.8,-162.5 1338.8,-169.5"/>
</g>
<!-- x5 -->
<g id="node29" class="node">
<title>x5</title>
<path fill="none" stroke="black" d="M1390.8,-116C1390.8,-116 1360.8,-116 1360.8,-116 1354.8,-116 1348.8,-110 1348.8,-104 1348.8,-104 1348.8,-92 1348.8,-92 1348.8,-86 1354.8,-80 1360.8,-80 1360.8,-80 1390.8,-80 1390.8,-80 1396.8,-80 1402.8,-86 1402.8,-92 1402.8,-92 1402.8,-104 1402.8,-104 1402.8,-110 1396.8,-116 1390.8,-116"/>
<text text-anchor="middle" x="1375.8" y="-94.3" font-family="Times,serif" font-size="14.00">BUF</text>
</g>
<!-- c38&#45;&gt;x5 -->
<g id="edge4" class="edge">
<title>c38:e&#45;&gt;x5:w</title>
<path fill="none" stroke="black" d="M1312.8,-98C1324.8,-98 1330.05,-98 1338.68,-98"/>
<polygon fill="black" stroke="black" points="1338.8,-101.5 1348.8,-98 1338.8,-94.5 1338.8,-101.5"/>
</g>
<!-- x0&#45;&gt;n14 -->
<g id="edge6" class="edge">
<title>x0:e&#45;&gt;n14:w</title>
<path fill="none" stroke="black" d="M422,-194C492.28,-194 512.32,-194.91 577.88,-194.99"/>
<polygon fill="black" stroke="black" points="577.9,-198.49 587.9,-195 577.9,-191.49 577.9,-198.49"/>
</g>
<!-- x1&#45;&gt;n15 -->
<g id="edge8" class="edge">
<title>x1:e&#45;&gt;n15:w</title>
<path fill="none" stroke="black" d="M422,-96C434,-96 439.25,-95.44 447.87,-95.16"/>
<polygon fill="black" stroke="black" points="448.06,-98.65 458,-95 447.95,-91.65 448.06,-98.65"/>
</g>
<!-- x2&#45;&gt;n16 -->
<g id="edge11" class="edge">
<title>x2:e&#45;&gt;n16:w</title>
<path fill="none" stroke="black" d="M912.4,-135C924.4,-135 929.65,-135 938.28,-135"/>
<polygon fill="black" stroke="black" points="938.4,-138.5 948.4,-135 938.4,-131.5 938.4,-138.5"/>
</g>
<!-- x3&#45;&gt;n17 -->
<g id="edge14" class="edge">
<title>x3:e&#45;&gt;n17:w</title>
<path fill="none" stroke="black" d="M912.4,-79C924.41,-79 929.65,-79.56 938.27,-79.84"/>
<polygon fill="black" stroke="black" points="938.35,-83.35 948.4,-80 938.46,-76.35 938.35,-83.35"/>
</g>
<!-- x4&#45;&gt;n19 -->
<g id="edge17" class="edge">
<title>x4:e&#45;&gt;n19:w</title>
<path fill="none" stroke="black" d="M1402.8,-166C1414.8,-166 1420.05,-166 1428.68,-166"/>
<polygon fill="black" stroke="black" points="1428.8,-169.5 1438.8,-166 1428.8,-162.5 1428.8,-169.5"/>
</g>
<!-- x5&#45;&gt;n20 -->
<g id="edge19" class="edge">
<title>x5:e&#45;&gt;n20:w</title>
<path fill="none" stroke="black" d="M1402.8,-98C1414.8,-98 1420.05,-98 1428.68,-98"/>
<polygon fill="black" stroke="black" points="1428.8,-101.5 1438.8,-98 1428.8,-94.5 1428.8,-101.5"/>
</g>
</g>
</svg>
